<?xml version="1.0" encoding="utf-8"?>
<!-- Generator: Adobe Illustrator 25.0.0, SVG Export Plug-In . SVG Version: 6.00 Build 0)  -->
<svg version="1.1" id="Calque_1" xmlns="http://www.w3.org/2000/svg" xmlns:xlink="http://www.w3.org/1999/xlink" x="0px" y="0px"
	 viewBox="0 0 1800 1800" style="enable-background:new 0 0 1800 1800;" xml:space="preserve">
<style type="text/css">
	.st0{fill:url(#SVGID_1_);}
	.st1{fill:url(#SVGID_2_);}
</style>
<g>
	<linearGradient id="SVGID_1_" gradientUnits="userSpaceOnUse" x1="841.8516" y1="339.8295" x2="1544.1659" y2="1038.7345">
		<stop  offset="0" style="stop-color:#2580C3"/>
		<stop  offset="1" style="stop-color:#3A1234"/>
	</linearGradient>
	<path class="st0" d="M1295.65,396.18l-434.23,0c-59.74,0-108.17,48.43-108.17,108.17l0,0c0,59.74,48.43,108.17,108.17,108.17
		l217.89,0c18.87,0,36.61,4.84,52.05,13.34l-55.53,83.34c-15.03,22.56-38.6,38.03-65.28,42.85l-11.39,2.06
		c-1.72-2.25-3.6-4.42-5.65-6.48c-25.99-25.99-68.74-25.24-93.76,2.24c-22.35,24.54-22.35,62.6,0,87.14
		c25.02,27.48,67.77,28.23,93.76,2.24c7.79-7.79,13.17-17.09,16.16-26.97l36.13-6.53c26.68-4.82,50.24-20.29,65.27-42.85
		l62.94-94.47c8.57,15.49,13.46,33.3,13.46,52.26v216.31c0,59.74,48.43,108.17,108.17,108.17l0,0
		c59.74,0,108.17-48.43,108.17-108.17V504.35C1403.82,444.61,1355.39,396.18,1295.65,396.18z"/>
	<linearGradient id="SVGID_2_" gradientUnits="userSpaceOnUse" x1="416.4329" y1="767.3234" x2="1118.7472" y2="1466.2284">
		<stop  offset="0" style="stop-color:#2580C3"/>
		<stop  offset="1" style="stop-color:#3A1234"/>
	</linearGradient>
	<path class="st1" d="M1101.68,855.91c-24.74-22.52-63.15-22.31-87.65,0.48c-19.11,17.77-24.95,44.23-17.56,67.32l-97.44,97.44
		c-18.7,18.7-29.21,44.07-29.21,70.53l0,95.81l-149.13,0c-22.12,0-42.68-6.65-59.82-18.05l39.47-112.66
		c9.61-27.43,30.72-49.31,57.79-59.9l0,0c25.93,22.96,66.01,21.56,90.2-4.24c22.96-24.48,23.26-63.03,0.66-87.85
		c-25.02-27.48-67.78-28.23-93.76-2.24c-10.97,10.97-17.17,24.93-18.61,39.28l-25.3,9.9c-27.07,10.59-48.18,32.47-57.79,59.9
		l-35.58,101.55c-3.51-10.65-5.44-22.03-5.44-33.86l0-217.89c0-59.74-48.43-108.17-108.17-108.17l0,0
		c-59.74,0-108.17,48.43-108.17,108.17l0,434.23c0,59.74,48.43,108.17,108.17,108.17h432.66c59.74,0,108.17-48.43,108.17-108.17v0
		c0-59.74-48.43-108.17-108.17-108.17l-8.08,0l0-71.32c0-26.45,10.51-51.82,29.21-70.53l80.12-80.12
		c22.39,7.17,47.92,1.9,65.66-15.83C1129.92,923.68,1129.17,880.93,1101.68,855.91z"/>
</g>
</svg>
