<?xml version="1.0" encoding="utf-8"?>
<!-- Generator: Adobe Illustrator 24.0.2, SVG Export Plug-In . SVG Version: 6.00 Build 0)  -->
<svg version="1.1" id="Calque_1" xmlns="http://www.w3.org/2000/svg" xmlns:xlink="http://www.w3.org/1999/xlink" x="0px" y="0px"
	 viewBox="0 0 1800 1800" style="enable-background:new 0 0 1800 1800;" xml:space="preserve">
<style type="text/css">
	.st0{fill:#FFFFFF;}
</style>
<g>
	<path class="st0" d="M1598.4,14H835.7c-104.9,0-190,85.1-190,190l0,0c0,104.9,85.1,190,190,190h382.7c33.1,0,64.3,8.5,91.4,23.4
		l-97.5,146.4c-26.4,39.6-67.8,66.8-114.6,75.3l-20,3.6c-3-4-6.3-7.8-9.9-11.4c-45.6-45.6-120.7-44.3-164.7,3.9
		c-39.3,43.1-39.3,109.9,0,153c43.9,48.3,119,49.6,164.7,3.9c13.7-13.7,23.1-30,28.4-47.4l63.5-11.5c46.9-8.5,88.2-35.6,114.6-75.3
		l110.5-165.9c15.1,27.2,23.6,58.5,23.6,91.8v379.9c0,104.9,85.1,190,190,190l0,0c104.9,0,190-85.1,190-190V204
		C1788.3,99.1,1703.3,14,1598.4,14z"/>
	<path class="st0" d="M1257.7,821.4c-43.5-39.6-110.9-39.2-153.9,0.8c-33.6,31.2-43.8,77.7-30.8,118.2l-171.1,171.1
		c-32.8,32.8-51.3,77.4-51.3,123.9v168.3H588.6c-38.8,0-75-11.7-105.1-31.7l69.3-197.9c16.9-48.2,54-86.6,101.5-105.2l0,0
		c45.5,40.3,115.9,37.9,158.4-7.4c40.3-43,40.9-110.7,1.2-154.3c-43.9-48.3-119-49.6-164.7-3.9c-19.3,19.3-30.2,43.8-32.7,69
		l-44.4,17.4c-47.5,18.6-84.6,57-101.5,105.2l-62.5,178.4c-6.2-18.7-9.6-38.7-9.6-59.5V831.1c0-104.9-85.1-190-190-190l0,0
		c-104.9,0-190,85.1-190,190v762.6c0,104.9,85.1,190,190,190h759.9c104.9,0,190-85.1,190-190l0,0c0-104.9-85.1-190-190-190h-14.2
		v-125.3c0-46.5,18.5-91,51.3-123.9l140.7-140.7c39.3,12.6,84.2,3.3,115.3-27.8C1307.3,940.4,1306,865.4,1257.7,821.4z"/>
</g>
</svg>
