<?xml version="1.0" encoding="utf-8"?>
<!-- Generator: Adobe Illustrator 24.0.2, SVG Export Plug-In . SVG Version: 6.00 Build 0)  -->
<svg version="1.1" id="Calque_1" xmlns="http://www.w3.org/2000/svg" xmlns:xlink="http://www.w3.org/1999/xlink" x="0px" y="0px"
	 viewBox="0 0 1800 1800" style="enable-background:new 0 0 1800 1800;" xml:space="preserve">
<style type="text/css">
	.st0{opacity:0.24;fill:#2F55D4;enable-background:new    ;}
	.st1{fill:#2F55D4;}
	.st2{fill:url(#SVGID_1_);}
	.st3{fill:url(#SVGID_2_);}
	.st4{fill:#25233A;}
	.st5{fill:#606161;}
	.st6{fill:#3F3D56;}
	.st7{fill:#F2FBFF;}
	.st8{fill:url(#SVGID_3_);}
	.st9{fill:url(#SVGID_4_);}
	.st10{fill:#E5CACE;}
	.st11{fill:url(#SVGID_5_);}
	.st12{fill:#B58B81;}
	.st13{fill:url(#SVGID_6_);}
	.st14{fill:#D2E8EC;}
	.st15{fill:#292F67;}
	.st16{fill:url(#SVGID_7_);}
	.st17{fill:url(#SVGID_8_);}
	.st18{fill:none;stroke:#FFFFFF;stroke-width:4.3695;stroke-miterlimit:7.0363;}
	.st19{fill:url(#SVGID_9_);}
	.st20{fill:url(#SVGID_10_);}
	.st21{fill:url(#SVGID_11_);}
	.st22{fill:url(#SVGID_12_);}
	.st23{fill:none;stroke:#FFFFFF;stroke-width:2.9341;stroke-miterlimit:7.0363;}
	.st24{fill:#FFFFFF;}
</style>
<path class="st0" d="M589.9,174.4c-122.2,48.4-193.1,172.9-285.7,266.4c-53.1,53.8-114.6,98.1-169.1,150.3S32.3,705.9,15.8,779.5
	c-31.5,139.5,56.4,275.8,79.4,417c7.3,45.1,8.1,91.6,22.7,134.9c11.6,34.2,31.5,65.2,54.5,92.8c93.2,112.9,242.4,177.3,388.5,167.6
	c96.4-6.4,189-42.7,285.7-46.7c145.7-6.1,292.7,61.6,434,25.7c65.2-16.6,122.9-53.9,178.3-91.9c110-75.4,224.6-167.9,250.1-298.9
	c18.8-96.2-14.7-197.5,8.7-292.7c13.5-55.2,45.3-104.3,62.1-158.6c35.6-115.2-2.4-246.2-83.6-335.3s-200.4-138.3-320.5-148.7
	c-78.8-6.9-158,1.8-237.1,0.3C945.6,241.6,790.1,95.1,589.9,174.4z"/>
<path class="st0" d="M425,1322.2c-8.2,1.7-17,3.8-22.5,9.9c-7.8,8.9-6,23.2,1.1,32.7c7.1,9.5,18.2,14.8,29.2,19
	c51.9,19.9,108.8,20.1,164.3,20.1c112,0,228.3-0.7,329.8-48.2c-82-31.7-158.4-30.1-243.7-36.1C594.4,1313.6,513.8,1304.1,425,1322.2
	z"/>
<polygon class="st1" points="1098.6,804.4 1045.9,833.3 971.2,1017.9 1129.4,931.3 "/>
<polygon class="st1" points="1325.9,804.4 1378.7,833.3 1453.4,1017.9 1295.2,931.3 "/>
<linearGradient id="SVGID_1_" gradientUnits="userSpaceOnUse" x1="1254.6685" y1="938.5876" x2="1151.6995" y2="-74.4672" gradientTransform="matrix(0.7036 0 0 -0.7036 189.753 1415.8995)">
	<stop  offset="0" style="stop-color:#010101;stop-opacity:0"/>
	<stop  offset="0.95" style="stop-color:#010101"/>
</linearGradient>
<polygon class="st2" points="1098.6,804.4 1045.9,833.3 971.2,1017.9 1129.4,931.3 "/>
<linearGradient id="SVGID_2_" gradientUnits="userSpaceOnUse" x1="1710.4143" y1="892.3062" x2="1607.4924" y2="-120.7487" gradientTransform="matrix(0.7036 0 0 -0.7036 189.753 1415.8995)">
	<stop  offset="0" style="stop-color:#010101;stop-opacity:0"/>
	<stop  offset="0.95" style="stop-color:#010101"/>
</linearGradient>
<polygon class="st3" points="1325.9,804.4 1378.7,833.3 1453.4,1017.9 1295.2,931.3 "/>
<path class="st4" d="M700.5,1310.3c-2.1,7.4,1.1,15.2,7.8,19c3.2,1.4,6.6,2.5,10.1,3.1c10.7,2.6,20.6,7.8,28.8,15.1
	c2.7,1.8,4.3,4.9,4.2,8.2c-0.8,3.7-5.1,5.2-8.7,6.1c-7.7,2.1-15.5,3.5-23.4,4.3c-16.1,1.1-32-3.3-47.5-7.8
	c-5.9-1.7-14.8-4.2-16.1-11.1c-0.3-4.7-0.1-9.5,0.7-14.2l1-23.9"/>
<path class="st4" d="M608.9,1338.8c-1.4,3.7-0.6,7.9,2.3,10.8c2.8,2.7,6,5,9.5,6.8c9.2,5.6,17.3,12.7,23.9,21.2
	c3.1,3.9,5.9,9,4,13.5c-1,2.1-2.7,3.9-4.7,5c-6.6,3.9-14.2,5.6-21.9,5c-19.3-0.5-47.7-12.5-53.3-33.4c-1.8-6.5,0.2-15.3,0.4-22
	l0.7-16.1"/>
<path class="st5" d="M718.1,941.5l-15,374.7c-5.8,4.2-12.7,6.6-19.9,6.9c-13.8,0.8-16.3,1.8-26.3-7.3l-43.4-393l104.6-2.2V941.5z"/>
<path class="st4" d="M718.1,941.5l-15,374.7c-5.8,4.2-12.7,6.6-19.9,6.9c-13.8,0.8-16.3,1.8-26.3-7.3l-43.4-393l104.6-2.2V941.5z"/>
<path class="st5" d="M659,975.1l-43.1,364.4c0,0-6.2,6.4-23.2,6.6c-19.3,0.2-21-2.4-25.3-12.1l-8.5-418l99,16.9L659,975.1z"/>
<path class="st6" d="M659,975.1l-43.1,364.4c0,0-6.2,6.4-23.2,6.6c-19.3,0.2-21-2.4-25.3-12.1l-8.5-418l99,16.9L659,975.1z"/>
<path class="st7" d="M672.5,938.7c-13.5,4.6-27.4,7.8-41.5,9.7c-18.7,1.9-38.4-7.1-53.1-7.9c-19.6-1-20.1-1.6-20.1-14.4
	c0-6.4,162.9-21.9,162.9-21.9s-0.8,11.8-0.7,22.6c0,8.2-3.5,7.7-18.3,8.6C686.8,936.3,684,931.8,672.5,938.7z"/>
<path class="st1" d="M608.2,651c0,0-27.3,7.1-46.8,21.3c-12,8.8-3.7,253.9-3.7,253.9c1.2-0.2,53.6,21,104.2,12.3
	c43.1-7.4,58.7-27.7,58.7-27.7s3.9-235.2-4.5-244.8c-3.7-4.3-44.7-19.5-44.7-19.5S653.3,673.4,608.2,651z"/>
<linearGradient id="SVGID_3_" gradientUnits="userSpaceOnUse" x1="656.7676" y1="927.1044" x2="585.7968" y2="14.2852" gradientTransform="matrix(0.7036 0 0 -0.7036 180.6411 1402.2843)">
	<stop  offset="0" style="stop-color:#010101;stop-opacity:0"/>
	<stop  offset="0.95" style="stop-color:#010101"/>
</linearGradient>
<path class="st8" d="M608.2,651c0,0-27.3,7.1-46.8,21.3c-12,8.8-3.7,253.9-3.7,253.9c1.2-0.2,53.6,21,104.2,12.3
	c43.1-7.4,58.7-27.7,58.7-27.7s3.9-235.2-4.5-244.8c-3.7-4.3-44.7-19.5-44.7-19.5S653.3,673.4,608.2,651z"/>
<linearGradient id="SVGID_4_" gradientUnits="userSpaceOnUse" x1="608.1633" y1="638.2192" x2="670.3358" y2="638.2192">
	<stop  offset="0" style="stop-color:#D2B0C3"/>
	<stop  offset="1" style="stop-color:#F2E9C9"/>
</linearGradient>
<path class="st9" d="M616.7,600.1l-8.6,52c0,0,19,28,43.3,23.8c24.3-4.2,18.2-15.5,18.2-15.5l-3.2-43.9
	C666.5,616.5,644.7,620.4,616.7,600.1z"/>
<path class="st10" d="M614,615.6l3.3-19.1c29.2,21.2,44.4,12.2,44.4,12.2l7.1,24.7c-4,4.2-9.3,6.7-15.1,7.2
	C639.5,641.7,625.3,630.5,614,615.6z"/>
<path class="st7" d="M609.3,644.4l-26.5,12.5c0,0,41.8,44.2,54.5,43.3c0,0,12-22.3,23.2-25.9L609.3,644.4z"/>
<path class="st7" d="M670.7,652c-2.2,7.9-5.6,15.4-10.1,22.3c2.5,1,18.7,12.3,19,19.9c0,0,16.1-36.5,9.5-42.2
	c-5.6-2.8-11.3-5.4-17.1-7.6L670.7,652z"/>
<path class="st1" d="M572.1,665.8c0,0-41,13.3-45.7,78.8c-4.2,59.7-14.9,103-6.2,120.7c11.3,23,90.4,26.9,90.4,26.9
	c1.9-11.5,1.4-23.2-1.4-34.5l-43.3-17.3C565.9,840.3,572.8,676,572.1,665.8z"/>
<linearGradient id="SVGID_5_" gradientUnits="userSpaceOnUse" x1="594.061" y1="568.213" x2="694.6518" y2="568.213">
	<stop  offset="0" style="stop-color:#D2B0C3"/>
	<stop  offset="1" style="stop-color:#F2E9C9"/>
</linearGradient>
<path class="st11" d="M594.2,556.9c2.2,30.2,33.2,83.6,63.3,81.4c30.2-2.2,39-64.7,36.8-94.9c-2.2-30.2-19.1-47.4-49.3-45.2
	C614.8,500.4,592,526.6,594.2,556.9C594.2,556.9,594.2,556.9,594.2,556.9z"/>
<path class="st12" d="M665.3,887.4c-0.7-5.8,2-11.3,2.8-21.1s-5.6-12.4-14.9-13.3c-2.6-0.3-4.5-0.6-6.2-0.9
	c-8.7,2.1-1.8,12.6-1.3,19.9c0.5,7.3-1.2,17.7,1.4,19.9c1.1,1,9.1,0.5,18.3-0.7C665.5,889.9,665.5,888.6,665.3,887.4z"/>
<linearGradient id="SVGID_6_" gradientUnits="userSpaceOnUse" x1="615.9225" y1="876.6507" x2="666.8939" y2="876.6507">
	<stop  offset="0" style="stop-color:#D2B0C3"/>
	<stop  offset="1" style="stop-color:#F2E9C9"/>
</linearGradient>
<path class="st13" d="M615.9,858.6c5.4-1.1,10.7-2.6,15.9-4.4c6.8-2.6,9-1.1,19,0c10,1.1,16.9,3.6,16,13.7s-3.7,15.7-3,21.6
	c0.8,5.9-1.1,10.9-9.9,11.1c-8.9,0.2-38-8.8-38-8.8"/>
<path class="st7" d="M606.2,856h15.2c0,0,6.6,22-2,37.2l-16.8-0.7C602.7,892.5,608.4,871.1,606.2,856z"/>
<ellipse class="st14" cx="613.9" cy="863.1" rx="3.3" ry="3.5"/>
<path class="st15" d="M673.3,571.1L673.3,571.1c-1-3.9-0.4-8,1.6-11.4c2-3.5,5.3-6,9.2-6.9c8-2.5,16.4,2,18.9,10
	c2.5,8-2,16.4-10,18.9c-0.4,0.1-0.9,0.2-1.3,0.3h-0.5C683.2,583.7,675.4,578.9,673.3,571.1z M685,556.3c-6.1,1.6-9.8,7.8-8.2,14l0,0
	c1.6,6.1,7.8,9.8,14,8.3c6.1-1.6,9.8-7.8,8.3-14c-1.5-6-7.6-9.7-13.6-8.3L685,556.3z"/>
<path class="st15" d="M642.4,582.2c-3.9-2.3-6.8-6.1-7.9-10.5l0,0c-2.3-9.2,3.2-18.5,12.3-20.8c9.2-2.3,18.5,3.2,20.8,12.3
	c2.3,9.1-3.1,18.4-12.3,20.8h-0.6C650.6,585,646.2,584.3,642.4,582.2z M647.8,554.3c-7.2,1.8-11.6,9.2-9.7,16.4c0,0.1,0,0.1,0.1,0.2
	c1.9,7.2,9.2,11.5,16.5,9.7s11.5-9.2,9.7-16.5c-1.8-7-8.9-11.3-15.9-9.8H647.8z"/>
<path class="st15" d="M672.9,567.5l3.5-1c-0.5-1.4-1.5-2.6-2.9-3.1c-3.1-0.9-6.4-0.3-9.1,1.6l1.7,3.3c3.5-1.9,5.3-1.7,6-1.4
	C672.4,567,672.7,567.2,672.9,567.5z"/>
<polygon class="st15" points="636,566.6 635.9,563 615.2,563.6 615.3,567.2 "/>
<path class="st1" d="M716,665.9c0,0,22.9,63.9,37.2,115.6s56.4,0.9,56.4,0.9s23.2-0.9,24.1,13.3c0.9,14.2-13.3,59.7-53.5,60.7
	c-40.3,1-82.9-51.8-82.9-51.8L716,665.9z"/>
<path class="st1" d="M777.6,887.8l-81.9-1.2c-7.5,0.4-13.9-5.3-14.3-12.8c-0.1-1.4,0.1-2.7,0.4-4l31.3-144.7
	c2.5-9.6,11.2-16.3,21.1-16.3L816,710c7.5-0.4,13.9,5.2,14.3,12.7c0.1,1.4,0,2.8-0.4,4.1l-31.2,144.7
	C796.2,881.1,787.5,887.8,777.6,887.8z"/>
<linearGradient id="SVGID_7_" gradientUnits="userSpaceOnUse" x1="809.8174" y1="1073.7601" x2="836.8674" y2="318.1042" gradientTransform="matrix(0.7036 0 0 -0.7036 180.6411 1402.2843)">
	<stop  offset="0" style="stop-color:#010101;stop-opacity:0"/>
	<stop  offset="0.95" style="stop-color:#010101"/>
</linearGradient>
<path class="st16" d="M777.6,887.8l-81.9-1.2c-7.5,0.4-13.9-5.3-14.3-12.8c-0.1-1.4,0.1-2.7,0.4-4l31.3-144.7
	c2.5-9.6,11.2-16.3,21.1-16.3L816,710c7.5-0.4,13.9,5.2,14.3,12.7c0.1,1.4,0,2.8-0.4,4.1l-31.2,144.7
	C796.2,881.1,787.5,887.8,777.6,887.8z"/>
<path class="st1" d="M778.2,888.7l-78.3-1.2c-7.2,0.4-13.3-5.2-13.6-12.3c-0.1-1.3,0.1-2.5,0.4-3.8l29.8-138.5
	c2.4-9.2,10.7-15.6,20.2-15.6l78.4,1.2c7.2-0.4,13.3,5.1,13.6,12.3c0.1,1.3-0.1,2.6-0.4,3.9l-29.8,138.5
	C796,882.3,787.7,888.7,778.2,888.7z"/>
<linearGradient id="SVGID_8_" gradientUnits="userSpaceOnUse" x1="782.524" y1="797.0293" x2="830.9233" y2="797.0293">
	<stop  offset="0" style="stop-color:#D2B0C3"/>
	<stop  offset="1" style="stop-color:#F2E9C9"/>
</linearGradient>
<path class="st17" d="M830.9,789.1c-0.1-3.2-0.7-6.4-2-9.3c-0.9-3-2.6-5.6-5-7.6c-2.7-1.5-5.7-2.2-8.8-2.1c-3.1,0-6.2,0-9.3,0
	c-3.4-0.1-6.8,0.6-9.9,1.8c-4.5,2.5-8.1,6.4-9.9,11.2c-4.2,9.1-5.1,20.6,0.9,28.5c2.7,3.1,5.8,5.9,9.4,8c3.8,2.6,8.3,5.4,12.8,4.1
	c2.1-0.7,4.1-1.9,5.7-3.5l6.6-5.5c2.3-1.7,4.2-3.8,5.6-6.2c1.2-3.1,1.8-6.4,1.7-9.8C829.6,795.6,830.3,792.3,830.9,789.1z"/>
<path class="st6" d="M690.3,504.3c-4.3-10.1-10.5-19.2-18.3-26.9l-0.6,6.1c-12.4-5.7-25.8-8.9-39.5-9.4l1.2,4.2
	c-5-1.2-9.7-3.2-14.2-5.7l-4.3,7.6c-2.9-2.3-6.1-4.2-9.5-5.7l-5.5,19.9c-1.6-0.8-3-1.9-4.3-3.1c-1.5-1-3.8-1.3-4.7,0.2
	c-0.4,0.7-0.5,1.5-0.4,2.3v8.6l-8.2-2.9c-0.7-0.3-1.5-0.3-2.2,0c-0.5,0.5-0.9,1.1-0.9,1.8c-5.9,29.6,6.6,68.2,26.2,91.3
	c0.8-3.6,0.4-7.2-1.1-10.6c-1.6-4.2-6.6-6.6-5.8-11.1c0.5-4.7,4.4-8.3,9.1-8.3c6.3,0.7,4,3.1,8.5,7.6c1.6-8.8-2.2-23.2,0.5-31.7
	c3.2-7.9,12.2-11.7,20.1-8.4c1.4,0.6,2.7,1.3,3.9,2.3c-0.2-5.6,6.4-9.3,12.1-9.1c5.6,0.2,12,2.4,18,3.1c5.1,0.6,10.3,4.1,15.2,4.1
	C698,530.2,693,511.3,690.3,504.3z"/>
<ellipse class="st0" cx="1209.5" cy="1279.9" rx="91.3" ry="11.1"/>
<ellipse class="st0" cx="1204" cy="1345.4" rx="148.1" ry="18"/>
<ellipse class="st18" cx="1206.7" cy="1207.7" rx="231.9" ry="28.2"/>
<path class="st1" d="M1211.9,335.8c0,0-249.2,146.3-102.8,602.7h203.1C1312.3,938.5,1463.1,575.3,1211.9,335.8z"/>
<linearGradient id="SVGID_9_" gradientUnits="userSpaceOnUse" x1="1205.8558" y1="1070.3157" x2="1603.2644" y2="1090.9095" gradientTransform="matrix(0.7036 0 0 -0.7036 180.6411 1402.2843)">
	<stop  offset="0" style="stop-color:#FFFFFF;stop-opacity:0"/>
	<stop  offset="0.95" style="stop-color:#FFFFFF"/>
</linearGradient>
<path class="st19" d="M1211.9,335.8c0,0-249.2,146.3-102.8,602.7h203.1C1312.3,938.5,1463.1,575.3,1211.9,335.8z"/>
<circle class="st1" cx="1207.7" cy="632.7" r="68.2"/>
<path class="st1" d="M1126.2,1098.8l25.1-45.7c4.4,56,18.2,111,40.7,162.5c40.5-40.3,50.6-101.1,58.5-157.7
	c11.5,27.8,21.8,56,30.8,84.7c18.4-36.4,24.4-77.9,17.1-118l15.6,26.5c10.7-38.5,6.1-79.6-12.8-114.8c-32.2,2.4-64.4,4-96.8,4.7
	c-15.5,0.4-31,0.6-46.6,0.6c-10.2,0-29.1-4-38.5,1.2c-18,9.9-11.4,52.8-10.3,70.4c0.9,14.6,2.8,29,5.7,43.3
	C1116,1063.3,1128.7,1094.1,1126.2,1098.8z"/>
<linearGradient id="SVGID_10_" gradientUnits="userSpaceOnUse" x1="1459.8951" y1="326.9169" x2="1484.636" y2="1154.6276" gradientTransform="matrix(0.7036 0 0 -0.7036 180.6411 1402.2843)">
	<stop  offset="0" style="stop-color:#010101;stop-opacity:0"/>
	<stop  offset="0.95" style="stop-color:#010101"/>
</linearGradient>
<path class="st20" d="M1126.2,1098.8l25.1-45.7c4.4,56,18.2,111,40.7,162.5c40.5-40.3,50.6-101.1,58.5-157.7
	c11.5,27.8,21.8,56,30.8,84.7c18.4-36.4,24.4-77.9,17.1-118l15.6,26.5c10.7-38.5,6.1-79.6-12.8-114.8c-32.2,2.4-64.4,4-96.8,4.7
	c-15.5,0.4-31,0.6-46.6,0.6c-10.2,0-29.1-4-38.5,1.2c-18,9.9-11.4,52.8-10.3,70.4c0.9,14.6,2.8,29,5.7,43.3
	C1116,1063.3,1128.7,1094.1,1126.2,1098.8z"/>
<linearGradient id="SVGID_11_" gradientUnits="userSpaceOnUse" x1="1463.6229" y1="449.1129" x2="1478.6559" y2="953.9675" gradientTransform="matrix(0.7036 0 0 -0.7036 180.6411 1402.2843)">
	<stop  offset="0" style="stop-color:#010101;stop-opacity:0"/>
	<stop  offset="0.95" style="stop-color:#010101"/>
</linearGradient>
<path class="st21" d="M1160.7,1041.4l15.3-27.9c2.7,34.2,11.1,67.7,24.9,99.1c24.7-24.6,30.9-61.7,35.6-96.2
	c7,17,13.3,34.2,18.8,51.7c11.2-22.2,14.9-47.5,10.4-72l9.5,16.2c6.6-23.5,3.7-48.7-7.8-70.2c-19.6,1.5-39.3,2.4-59,2.9
	c-9.5,0.2-19,0.3-28.5,0.3c-6.2,0-17.7-2.5-23.4,0.7c-11,6.1-7,32.2-6.3,43.1c0.6,8.9,1.8,17.8,3.5,26.5
	C1154.5,1019.8,1162.2,1038.6,1160.7,1041.4z"/>
<path class="st1" d="M1161,382.4c0,0,51.7,17.4,93.7,0l-41.7-45.4c-3.8-4.2-10.3-4.4-14.5-0.6c-0.4,0.3-0.7,0.7-1,1.1L1161,382.4z"
	/>
<linearGradient id="SVGID_12_" gradientUnits="userSpaceOnUse" x1="1494.6892" y1="1471.3209" x2="1305.2921" y2="1504.2616" gradientTransform="matrix(0.7036 0 0 -0.7036 180.6411 1402.2843)">
	<stop  offset="0" style="stop-color:#010101;stop-opacity:0"/>
	<stop  offset="0.95" style="stop-color:#010101"/>
</linearGradient>
<path class="st22" d="M1161,382.4c0,0,51.7,17.4,93.7,0l-42.2-45.9c-3.6-3.9-9.7-4.2-13.6-0.6c-0.3,0.3-0.6,0.6-0.9,1L1161,382.4z"
	/>
<path class="st23" d="M1296,1104.7c34.8,3.3,56.9,8.7,56.9,14.6c0,10.5-69.6,19-155.8,19s-155.8-8.5-155.8-19
	c0-8.7,47.9-16,113.2-18.2"/>
<g>
	<path class="st24" d="M1230.3,602.8h-25.4c-3.5,0-6.3,2.8-6.3,6.3l0,0c0,3.5,2.8,6.3,6.3,6.3h12.7c1.1,0,2.1,0.3,3,0.8l-3.2,4.9
		c-0.9,1.3-2.3,2.2-3.8,2.5l-0.7,0.1c-0.1-0.1-0.2-0.3-0.3-0.4c-1.5-1.5-4-1.5-5.5,0.1c-1.3,1.4-1.3,3.7,0,5.1
		c1.5,1.6,4,1.7,5.5,0.1c0.5-0.5,0.8-1,0.9-1.6l2.1-0.4c1.6-0.3,2.9-1.2,3.8-2.5l3.7-5.5c0.5,0.9,0.8,1.9,0.8,3.1v12.6
		c0,3.5,2.8,6.3,6.3,6.3l0,0c3.5,0,6.3-2.8,6.3-6.3v-25.3C1236.6,605.6,1233.8,602.8,1230.3,602.8z"/>
	<path class="st24" d="M1218.9,629.7c-1.4-1.3-3.7-1.3-5.1,0c-1.1,1-1.5,2.6-1,3.9l-5.7,5.7c-1.1,1.1-1.7,2.6-1.7,4.1v5.6h-8.7
		c-1.3,0-2.5-0.4-3.5-1.1l2.3-6.6c0.6-1.6,1.8-2.9,3.4-3.5l0,0c1.5,1.3,3.9,1.3,5.3-0.2c1.3-1.4,1.4-3.7,0-5.1
		c-1.5-1.6-4-1.7-5.5-0.1c-0.6,0.6-1,1.5-1.1,2.3l-1.5,0.6c-1.6,0.6-2.8,1.9-3.4,3.5l-2.1,5.9c-0.2-0.6-0.3-1.3-0.3-2V630
		c0-3.5-2.8-6.3-6.3-6.3l0,0c-3.5,0-6.3,2.8-6.3,6.3v25.4c0,3.5,2.8,6.3,6.3,6.3h25.3c3.5,0,6.3-2.8,6.3-6.3l0,0
		c0-3.5-2.8-6.3-6.3-6.3h-0.5v-4.2c0-1.5,0.6-3,1.7-4.1l4.7-4.7c1.3,0.4,2.8,0.1,3.8-0.9C1220.6,633.6,1220.5,631.1,1218.9,629.7z"
		/>
</g>
</svg>
