<?xml version="1.0" encoding="utf-8"?>
<!-- Generator: Adobe Illustrator 24.0.2, SVG Export Plug-In . SVG Version: 6.00 Build 0)  -->
<svg version="1.1" id="Calque_1" xmlns="http://www.w3.org/2000/svg" xmlns:xlink="http://www.w3.org/1999/xlink" x="0px" y="0px"
	 viewBox="0 0 1800 1800" style="enable-background:new 0 0 1800 1800;" xml:space="preserve">
<style type="text/css">
	.st0{opacity:0.4;fill:#2F55D4;enable-background:new    ;}
	.st1{fill:#2F55D4;}
	.st2{fill:url(#SVGID_1_);}
	.st3{fill:#606161;}
	.st4{fill:url(#SVGID_2_);}
	.st5{fill:#CCE8EC;}
	.st6{fill:url(#SVGID_3_);}
	.st7{fill:url(#SVGID_4_);}
	.st8{fill:#2A2D6B;}
	.st9{fill:url(#SVGID_5_);}
	.st10{fill:#3F3D56;}
	.st11{fill:url(#SVGID_6_);}
	.st12{fill:url(#SVGID_7_);}
	.st13{fill:url(#SVGID_8_);}
	.st14{fill:#EFFAFF;}
	.st15{fill:url(#SVGID_9_);}
	.st16{fill:url(#SVGID_10_);}
	.st17{fill:url(#SVGID_11_);}
	.st18{fill:url(#SVGID_12_);}
	.st19{fill:url(#SVGID_13_);}
	.st20{fill:url(#SVGID_14_);}
	.st21{fill:url(#SVGID_15_);}
	.st22{fill:url(#SVGID_16_);}
	.st23{fill:url(#SVGID_17_);}
	.st24{fill:url(#SVGID_18_);}
	.st25{fill:url(#SVGID_19_);}
	.st26{fill:#FFFFFF;}
</style>
<path class="st0" d="M800.6,1643.3c201.5-2.9,403.7-5.9,603.5-32.4c49.9-6.6,101.4-15.4,142.8-44c35.4-24.5,60.3-61.5,80.2-99.7
	c30.9-59.4,52.4-125.4,50.8-192.5c-1.8-78-34.2-153.8-29.5-231.6c5.2-83.8,52.3-158.3,87.8-234.3c37.1-79.3,62.9-167,52.3-253.9
	c-15.1-123.5-103.4-229.5-210.3-293.4s-231.2-92.1-354.1-112.8c-153.7-26.2-309.1-41.5-465-45.7c-74.7-1.6-151.9,0-220.6,28.8
	c-63.9,26.9-116,75.4-163.9,125.6C255.5,382,153,521.3,69.4,672C38.1,728.4,8.9,788.9,8,853.4c-1.5,110.6,78.4,203.2,121.9,305
	c41.2,96.1,45.6,197.5,25.8,299.1c-13.5,69.9-34.7,144.4,43.7,180.5c76.7,35.3,194.5,11.3,275.9,10.2L800.6,1643.3z"/>
<path class="st1" d="M977.3,1613.8c1,3.1-0.7,6.4-3.8,7.4c-0.7,0.2-1.4,0.3-2.2,0.3c-45.7,7.7-92.4,5-138.7,2.4
	c-3.6-20.1,12.5-39,30.9-47.7c18.4-8.7,39.3-10.2,59-15.4c8.1-2.7,16.5-4.7,25.1-5.8C983.6,1552.1,976.1,1589,977.3,1613.8z"/>
<linearGradient id="SVGID_1_" gradientUnits="userSpaceOnUse" x1="1145.8733" y1="42.825" x2="930.9348" y2="-255.3252" gradientTransform="matrix(0.7599 0 0 -0.7599 147.5498 1487.3412)">
	<stop  offset="0" style="stop-color:#010101;stop-opacity:0"/>
	<stop  offset="0.95" style="stop-color:#010101"/>
</linearGradient>
<path class="st2" d="M977.3,1613.8c1,3.1-0.7,6.4-3.8,7.4c-0.7,0.2-1.4,0.3-2.2,0.3c-45.7,7.7-92.4,5-138.7,2.4
	c-3.6-20.1,12.5-39,30.9-47.7c18.4-8.7,39.3-10.2,59-15.4c8.1-2.7,16.5-4.7,25.1-5.8C983.6,1552.1,976.1,1589,977.3,1613.8z"/>
<path class="st3" d="M838.9,529c-4.8-33.2-6.7-70.1,13.4-96.9c16.3-21.7,44.8-32.1,71.9-30.6s52.7,13.7,74.2,30.2
	c12.2,8.8,22.6,19.9,30.7,32.5c28.7,47.9,6.8,117.9,45,158.7c13.5,14.4,32.6,22.4,46.3,36.6c27.5,28.4,26.8,73.7-1.6,101.2
	c-11.9,11.5-27.3,18.5-43.8,19.9c-20.9,1.8-41.4-5.6-62.1-8.4c-33.2-4.5-67.1,2.8-100.4-0.9c-33.2-3.7-69.5-24.2-73.3-57.4
	s24.7-62.5,22.2-95.4c-1.8-22.8-18-41.5-28.4-61.8c-10.4-20.3-12.7-49.9,6.6-62.1"/>
<linearGradient id="SVGID_2_" gradientUnits="userSpaceOnUse" x1="1117.5336" y1="1285.2571" x2="1082.8876" y2="1016.5204" gradientTransform="matrix(0.7599 0 0 -0.7599 147.5498 1487.3412)">
	<stop  offset="0" style="stop-color:#010101;stop-opacity:0"/>
	<stop  offset="0.95" style="stop-color:#010101"/>
</linearGradient>
<path class="st4" d="M838.9,529c-4.8-33.2-6.7-70.1,13.4-96.9c16.3-21.7,44.8-32.1,71.9-30.6s52.7,13.7,74.2,30.2
	c12.2,8.8,22.6,19.9,30.7,32.5c28.7,47.9,6.8,117.9,45,158.7c13.5,14.4,32.6,22.4,46.3,36.6c27.5,28.4,26.8,73.7-1.6,101.2
	c-11.9,11.5-27.3,18.5-43.8,19.9c-20.9,1.8-41.4-5.6-62.1-8.4c-33.2-4.5-67.1,2.8-100.4-0.9c-33.2-3.7-69.5-24.2-73.3-57.4
	s24.7-62.5,22.2-95.4c-1.8-22.8-18-41.5-28.4-61.8c-10.4-20.3-12.7-49.9,6.6-62.1"/>
<rect x="1153.3" y="1566.6" class="st5" width="9.3" height="14.9"/>
<rect x="1126.9" y="1295" class="st1" width="62" height="162.2"/>
<linearGradient id="SVGID_3_" gradientUnits="userSpaceOnUse" x1="1335.7291" y1="-5.3072" x2="1321.8605" y2="344.914" gradientTransform="matrix(0.7599 0 0 -0.7599 147.5422 1487.3412)">
	<stop  offset="0" style="stop-color:#010101;stop-opacity:0"/>
	<stop  offset="0.95" style="stop-color:#010101"/>
</linearGradient>
<rect x="1126.9" y="1295" class="st6" width="62" height="162.2"/>
<rect x="1126.9" y="1534.2" class="st1" width="62" height="30.3"/>
<rect x="1136.2" y="1456.2" class="st1" width="43.4" height="78.9"/>
<linearGradient id="SVGID_4_" gradientUnits="userSpaceOnUse" x1="1301.1437" y1="-10.9711" x2="1358.2947" y2="-10.9711" gradientTransform="matrix(0.7599 0 0 -0.7599 147.5422 1487.3412)">
	<stop  offset="0" style="stop-color:#FFFFFF;stop-opacity:0"/>
	<stop  offset="0.95" style="stop-color:#FFFFFF"/>
</linearGradient>
<rect x="1136.2" y="1456.2" class="st7" width="43.4" height="78.9"/>
<rect x="1016.6" y="1552" class="st1" width="282.7" height="15.1"/>
<path class="st8" d="M1166.1,1614.9h-16.2c-3,0-5.4-2.4-5.4-5.4V1580c0-3,2.4-5.4,5.4-5.4h16.2c3,0,5.4,2.4,5.4,5.4v29.5
	C1171.5,1612.5,1169.1,1614.9,1166.1,1614.9z"/>
<rect x="1282.1" y="1566.1" class="st5" width="9.3" height="20.4"/>
<rect x="1025" y="1566.1" class="st5" width="9.3" height="20.4"/>
<circle class="st8" cx="1294" cy="1597" r="20.1"/>
<circle class="st8" cx="1021.9" cy="1595.6" r="20.1"/>
<path class="st1" d="M1405.4,766.6H1188c-23.4,0-43.5,16.7-47.8,39.7l-87.9,469l253-21.1L1405.4,766.6z"/>
<linearGradient id="SVGID_5_" gradientUnits="userSpaceOnUse" x1="1756.2075" y1="653.6357" x2="844.332" y2="577.3834" gradientTransform="matrix(0.7599 0 0 -0.7599 147.5498 1487.3412)">
	<stop  offset="0" style="stop-color:#010101;stop-opacity:0"/>
	<stop  offset="0.95" style="stop-color:#010101"/>
</linearGradient>
<path class="st9" d="M1405.4,766.6H1188c-23.4,0-43.5,16.7-47.8,39.7l-87.9,469l253-21.1L1405.4,766.6z"/>
<path class="st1" d="M1097.9,1267.4c0-19.4,15.7-35.2,35.2-35.2h169.1c27.9-175,65.9-414.7,68.1-433.2c1.6-19.4,18.5-33.8,37.9-32.2
	c18.2,1.5,32.2,16.6,32.3,34.9c0,3.6,0,10.1-73.7,471.2c-2.7,17.1-17.5,29.6-34.7,29.6H1133
	C1113.6,1302.5,1097.9,1286.8,1097.9,1267.4z M1370.2,801.8c0-0.8,0-1.6,0-2.4C1370.2,800.2,1370.2,801,1370.2,801.8z"/>
<path class="st1" d="M920.7,1302.5h235.7c19.4-0.6,34.6-16.9,34-36.3c-0.6-18.5-15.5-33.4-34-34H920.7c-19.4-0.6-35.7,14.6-36.3,34
	c-0.6,19.4,14.6,35.7,34,36.3C919.2,1302.6,920,1302.6,920.7,1302.5z"/>
<path class="st10" d="M1145.5,1083.3c0,0-321.1,120.3-322.6,125.8c-10.3,38.6,88.8,355.1,88.8,355.1s33,21.1,71.8-4.2l-30.7-284.4
	l157.3-45.8C1110.1,1229.8,1182.5,1198.8,1145.5,1083.3z"/>
<path class="st10" d="M933.9,1077.4c0,0-223.9,105.6-221.9,111s43.4,345.5,43.4,345.5s29.7,20,71.5,0l6.6-285.9l270.6-38.9
	c0,0,26.6-40,41.5-125.8C1116.4,1060.1,941.8,1074.7,933.9,1077.4z"/>
<linearGradient id="SVGID_6_" gradientUnits="userSpaceOnUse" x1="559.3046" y1="938.1446" x2="692.4547" y2="912.2996">
	<stop  offset="0" style="stop-color:#EDC6D7"/>
	<stop  offset="0.95" style="stop-color:#E1E1DD"/>
</linearGradient>
<path class="st11" d="M683.2,909.9c0,0-45.4-13.2-63.2-11.6c-17.8,1.7-57.1,21.1-60.8,22.7c-3.7,1.6-8.7,10.4,27,7.2
	c35.7-3.2,49.6,23.8,76,18.2c26.4-5.6,32.7-21.5,32.7-21.5"/>
<path class="st1" d="M888.7,641.9L814,858l-137.8,45.5c0,0-13.6,9.8,3.9,44.1c0,0,138.3-1.2,170.4-15.2
	c32.1-14,86.3-217.8,86.3-217.8"/>
<linearGradient id="SVGID_7_" gradientUnits="userSpaceOnUse" x1="798.7576" y1="837.1456" x2="1150.7059" y2="1033.0337" gradientTransform="matrix(0.7599 0 0 -0.7599 147.5498 1487.3412)">
	<stop  offset="0" style="stop-color:#010101;stop-opacity:0"/>
	<stop  offset="0.95" style="stop-color:#010101"/>
</linearGradient>
<path class="st12" d="M888.7,641.9L814,858l-137.8,45.5c0,0-13.6,9.8,3.9,44.1c0,0,138.3-1.2,170.4-15.2
	c32.1-14,86.3-217.8,86.3-217.8"/>
<path class="st1" d="M1029.1,656.1c19,23.9,33,53.8,45.3,79.6c26.1,54.1,43,112.1,50.2,171.7c4.1,35.4,3.9,71.7,8,107.8
	c0.7,5.6,11.6,68.8,6.9,70.8c0,0-73.6,26.4-185,27.9c-11.9,0-51.9,6.3-59-6.7c-4.5-8.2,3.9-34.3,4.4-43.3
	c4.5-52.5,3.6-79.5,5.1-132.2c0.6-19.3-31.2-98.9-40.1-109c-11.8-13.3-16-32.1-14.4-49.8c1.5-16,9.9-28.9,13-44
	c2.9-13.8,1.5-27.3,6.1-41.2c15.1-45.8,56.4-84.1,107.4-75.3C1004.3,617.2,1012.2,634.9,1029.1,656.1z"/>
<linearGradient id="SVGID_8_" gradientUnits="userSpaceOnUse" x1="983.7911" y1="799.4774" x2="1573.1827" y2="913.8809" gradientTransform="matrix(0.7599 0 0 -0.7599 147.5498 1487.3412)">
	<stop  offset="0" style="stop-color:#010101;stop-opacity:0"/>
	<stop  offset="0.95" style="stop-color:#010101"/>
</linearGradient>
<path class="st13" d="M1029.1,656.1c19,23.9,33,53.8,45.3,79.6c26.1,54.1,43,112.1,50.2,171.7c4.1,35.4,3.9,71.7,8,107.8
	c0.7,5.6,11.6,68.8,6.9,70.8c0,0-73.6,26.4-185,27.9c-11.9,0-51.9,6.3-59-6.7c-4.5-8.2,3.9-34.3,4.4-43.3
	c4.5-52.5,3.6-79.5,5.1-132.2c0.6-19.3-31.2-98.9-40.1-109c-11.8-13.3-16-32.1-14.4-49.8c1.5-16,9.9-28.9,13-44
	c2.9-13.8,1.5-27.3,6.1-41.2c15.1-45.8,56.4-84.1,107.4-75.3C1004.3,617.2,1012.2,634.9,1029.1,656.1z"/>
<path class="st14" d="M899.7,1063.9c0,0-52.2,37.1-37.1,46.1c13.8,8.3,111.3,9.6,124.4,18.3c13.1,8.7,35.2,39.4,87.7,53
	c52.5,13.6,70.9-22.5,74.7-53c2.5-17.6-1.1-35.5-10.1-50.8C1139.3,1077.5,947,1099,899.7,1063.9z"/>
<rect x="364.4" y="926.7" class="st1" width="315.7" height="20.8"/>
<linearGradient id="SVGID_9_" gradientUnits="userSpaceOnUse" x1="462.2365" y1="767.7094" x2="466.0974" y2="627.2958" gradientTransform="matrix(0.7599 0 0 -0.7599 170.1484 1488.7926)">
	<stop  offset="0" style="stop-color:#010101;stop-opacity:0"/>
	<stop  offset="0.95" style="stop-color:#010101"/>
</linearGradient>
<rect x="364.4" y="926.7" class="st15" width="315.7" height="20.8"/>
<rect x="331.5" y="946.2" class="st1" width="706.1" height="21.1"/>
<rect x="335.4" y="965.8" class="st1" width="561.6" height="671.9"/>
<linearGradient id="SVGID_10_" gradientUnits="userSpaceOnUse" x1="573.9678" y1="7.575" x2="639.8565" y2="1210.692" gradientTransform="matrix(0.7599 0 0 -0.7599 170.1484 1488.7926)">
	<stop  offset="0" style="stop-color:#010101;stop-opacity:0"/>
	<stop  offset="0.95" style="stop-color:#010101"/>
</linearGradient>
<rect x="335.4" y="965.8" class="st16" width="561.6" height="671.9"/>
<path class="st1" d="M291.6,568.1h336.7c22,0,39.8,17.8,39.8,39.8v226c0,22-17.8,39.8-39.8,39.8H291.6c-22,0-39.8-17.8-39.8-39.8
	v-226C251.8,585.9,269.6,568.1,291.6,568.1z"/>
<linearGradient id="SVGID_11_" gradientUnits="userSpaceOnUse" x1="251.7536" y1="720.8953" x2="668.0385" y2="720.8953">
	<stop  offset="0" style="stop-color:#2F55D4"/>
	<stop  offset="1" style="stop-color:#000000"/>
</linearGradient>
<path class="st17" d="M291.6,568.1h336.7c22,0,39.8,17.8,39.8,39.8v226c0,22-17.8,39.8-39.8,39.8H291.6c-22,0-39.8-17.8-39.8-39.8
	v-226C251.8,585.9,269.6,568.1,291.6,568.1z"/>
<path class="st1" d="M410.8,749.9h51.5c19.1,0,34.5,15.5,34.5,34.5l0,0v163.1l0,0H376.2l0,0V784.4
	C376.2,765.4,391.7,749.9,410.8,749.9z"/>
<linearGradient id="SVGID_12_" gradientUnits="userSpaceOnUse" x1="506.8401" y1="870.3301" x2="177.9045" y2="802.7141" gradientTransform="matrix(0.7599 0 0 -0.7599 170.1484 1488.7926)">
	<stop  offset="0" style="stop-color:#2F55D4"/>
	<stop  offset="1" style="stop-color:#000000"/>
</linearGradient>
<path class="st18" d="M410.8,749.9h51.5c19.1,0,34.5,15.5,34.5,34.5l0,0v163.1l0,0H376.2l0,0V784.4
	C376.2,765.4,391.7,749.9,410.8,749.9z"/>
<linearGradient id="SVGID_13_" gradientUnits="userSpaceOnUse" x1="902.4699" y1="618.4998" x2="977.1073" y2="604.0123">
	<stop  offset="0" style="stop-color:#EDC6D7"/>
	<stop  offset="0.95" style="stop-color:#E1E1DD"/>
</linearGradient>
<path class="st19" d="M909.7,653c-0.1,2.6,0.3,5.2,1.2,7.7c2.2,4.4,6.4,7.3,11.3,7.9c4.8,0.5,9.6-0.1,14.1-1.7
	c20.7-6.3,39.8-22.9,42.1-44.4c0.5-6.5,0-13-1.5-19.3c-2-9.9-5-19.5-9-28.8c-3.9-8.7-9.6-17.9-18.9-19.5
	c-9.3-1.6-18.8,6.1-24.5,14.4C908.4,592.9,909,625.6,909.7,653z"/>
<linearGradient id="SVGID_14_" gradientUnits="userSpaceOnUse" x1="1038.7684" y1="1315.5145" x2="1045.6774" y2="764.2236" gradientTransform="matrix(0.7599 0 0 -0.7599 147.5498 1487.3412)">
	<stop  offset="0" style="stop-color:#010101;stop-opacity:0"/>
	<stop  offset="0.95" style="stop-color:#010101"/>
</linearGradient>
<path class="st20" d="M965.2,605.7c-4.1,12.4-12.3,22.9-23.4,29.8c-4.3,2.7-9.2,3.9-14.2,3.7c-8.5-0.8-15.2-8-18.5-15.8
	c-2.8-7-4.2-14.5-4.3-22.1c-1.1-13.5,1.7-27.1,8.1-39.1c6.8-11.6,19.3-20.5,32.9-20.2C980.3,542.8,973,584.3,965.2,605.7z"/>
<linearGradient id="SVGID_15_" gradientUnits="userSpaceOnUse" x1="857.1097" y1="527.6099" x2="990.0621" y2="501.8033">
	<stop  offset="0" style="stop-color:#EDC6D7"/>
	<stop  offset="0.95" style="stop-color:#E1E1DD"/>
</linearGradient>
<path class="st21" d="M850.5,480.5l8.1,51c2.1,17.4,5.9,34.5,11.2,51.2c4.8,13.2,12.2,26.4,24.4,33.3c12.4,6.5,27.1,6.9,40,1.2
	c12.6-5.8,23.4-15,31.1-26.6c19.6-27.8,25-63.6,22.1-97.5c-1.7-20-6.4-40.4-18.7-56.2c-14.9-18.5-38.3-27.9-61.8-24.9
	C874,416.8,845.5,447.3,850.5,480.5z"/>
<path class="st1" d="M1017,499.8c-1.2-3.7-2.7-7.3-4.7-10.6c0.8-5.1,1.2-10.3,1.2-15.4c0-53.1-43-96.2-96.2-96.2
	c-53.1,0-96.2,43-96.2,96.2c0,0,0,0.1,0,0.1c0,5.2,0.4,10.5,1.3,15.7c-1.9,3.3-3.4,6.8-4.6,10.5c-2.2,6.1-0.8,35.6,2,39.6
	c5.1,7.4,18.9,13.1,27.7,14.2c1.1,1.3,2.8,1.9,4.5,1.7c2.8-0.2,5-2.7,4.8-5.5c0,0,0,0,0-0.1l-4.8-53c-0.3-2.9-2.9-4.9-5.8-4.6
	c-1.3,0.1-2.4,0.7-3.3,1.6h-1.4c-3.8-0.9-7.1-3.4-8.9-6.8c-0.7-4.3-1-8.7-1-13.1c0-48.1,38.4-81.1,85.8-81.1
	c47.4,0,85.8,33,85.8,81.1c0,4.4-0.3,8.8-1,13.2c-1.9,3.3-5,5.6-8.7,6.4H992c-2-2.1-5.4-2.2-7.5-0.2c-0.9,0.8-1.4,2-1.6,3.2l-4.8,53
	c-0.2,2.9,1.9,5.4,4.8,5.6c1.7,0.2,3.3-0.5,4.5-1.7c8.8-1.1,22.6-6.9,27.7-14.2C1017.9,535.4,1019.3,505.9,1017,499.8z"/>
<linearGradient id="SVGID_16_" gradientUnits="userSpaceOnUse" x1="1021.0074" y1="1423.214" x2="1003.6843" y2="1109.417" gradientTransform="matrix(0.7599 0 0 -0.7599 147.5498 1487.3412)">
	<stop  offset="0" style="stop-color:#010101;stop-opacity:0"/>
	<stop  offset="0.95" style="stop-color:#010101"/>
</linearGradient>
<path class="st22" d="M1017,499.8c-1.2-3.7-2.7-7.3-4.7-10.6c0.8-5.1,1.2-10.3,1.2-15.4c0-53.1-43-96.2-96.2-96.2
	c-53.1,0-96.2,43-96.2,96.2c0,0,0,0.1,0,0.1c0,5.2,0.4,10.5,1.3,15.7c-1.9,3.3-3.4,6.8-4.6,10.5c-2.2,6.1-0.8,35.6,2,39.6
	c5.1,7.4,18.9,13.1,27.7,14.2c1.1,1.3,2.8,1.9,4.5,1.7c2.8-0.2,5-2.7,4.8-5.5c0,0,0,0,0-0.1l-4.8-53c-0.3-2.9-2.9-4.9-5.8-4.6
	c-1.3,0.1-2.4,0.7-3.3,1.6h-1.4c-3.8-0.9-7.1-3.4-8.9-6.8c-0.7-4.3-1-8.7-1-13.1c0-48.1,38.4-81.1,85.8-81.1
	c47.4,0,85.8,33,85.8,81.1c0,4.4-0.3,8.8-1,13.2c-1.9,3.3-5,5.6-8.7,6.4H992c-2-2.1-5.4-2.2-7.5-0.2c-0.9,0.8-1.4,2-1.6,3.2l-4.8,53
	c-0.2,2.9,1.9,5.4,4.8,5.6c1.7,0.2,3.3-0.5,4.5-1.7c8.8-1.1,22.6-6.9,27.7-14.2C1017.9,535.4,1019.3,505.9,1017,499.8z"/>
<path class="st1" d="M994.5,550.9c-5.8-4.5-7.7,0-7.7,0c-3.1,5.5-20.8,30.3-59.3,41.3c-3.7-3.4-8.7-5.2-13.8-4.9
	c-8.6,0-15.6,4.1-15.6,9.2s7,9.3,15.6,9.3c8.6,0,15.4-4.1,15.6-9.2C942.8,592.4,976.4,579.9,994.5,550.9z"/>
<linearGradient id="SVGID_17_" gradientUnits="userSpaceOnUse" x1="1066.2952" y1="1280.0031" x2="1037.6943" y2="1134.4078" gradientTransform="matrix(0.7599 0 0 -0.7599 147.5498 1487.3412)">
	<stop  offset="0" style="stop-color:#010101;stop-opacity:0"/>
	<stop  offset="0.95" style="stop-color:#010101"/>
</linearGradient>
<path class="st23" d="M994.5,550.9c-5.8-4.5-7.7,0-7.7,0c-3.1,5.5-20.8,30.3-59.3,41.3c-3.7-3.4-8.7-5.2-13.8-4.9
	c-8.6,0-15.6,4.1-15.6,9.2s7,9.3,15.6,9.3c8.6,0,15.4-4.1,15.6-9.2C942.8,592.4,976.4,579.9,994.5,550.9z"/>
<path class="st3" d="M865.1,457.3c3.5,3.4,6.8,7.2,9.7,11.2c16.7,19.2,43.8,25.8,67.4,16.3c7.7-3.3,15.8-8.5,23.9-6.1
	c4.2,1.7,8.2,4,11.9,6.6c3.9,2.3,9.3,3.4,12.8,0.5c2.3-2.3,3.5-5.4,3.3-8.6c0.4-12-6.9-22.6-13.9-32.3c-5.4-8.4-12.2-15.9-20.1-22.2
	c-6.6-4.4-14-7.5-21.7-9.2c-20.2-4.7-41.4-2.7-60.4,5.7c-7,2.9-13.3,7.2-18.4,12.8c-3.1,3.6-8.8,12.3-7.1,17.4
	S860.9,453.7,865.1,457.3z"/>
<linearGradient id="SVGID_18_" gradientUnits="userSpaceOnUse" x1="1007.6036" y1="547.6135" x2="1070.3313" y2="535.4378">
	<stop  offset="0" style="stop-color:#EDC6D7"/>
	<stop  offset="0.95" style="stop-color:#E1E1DD"/>
</linearGradient>
<path class="st24" d="M1020.4,488.1c-2-1.5-4.3-2.3-6.8-2.4c-3.3,0.5-6,2.9-7,6.1c-0.9,3.2-1.1,6.4-0.7,9.7l2.4,44.3
	c0.1,4.9,0.7,9.7,1.9,14.5c3.5,12.5,13.6,21.8,23.2,30.5c3.9,4.2,8.9,7.2,14.4,8.8c7.9,0.9,15.7-2.6,20.3-9.1
	C1094.1,556.9,1048.2,505.1,1020.4,488.1z"/>
<path class="st1" d="M1067.2,827.1c24.6,27.3,56.6,49.2,92.6,56.2c4.4,2,9.6,0,11.6-4.5c0.3-0.7,0.5-1.5,0.7-2.3
	c10.9-28.9,8.7-61.3,1.2-91.3s-19.9-58.5-29.5-87.9c-11.6-35.9-64.7-132.5-68.7-132.5c-14.4,0-28.3,15.8-36.9,25.7
	c1.4,32.9,27.3,57,32.3,89.6c-3.9-18.1-30.3-38.6-46.8-46.8c-6.9-3.5-36.5-22.2-42.8-17.7c-4.9,3.4,14.1,26.5,13,32.4
	C982.1,710.2,1027.1,782.5,1067.2,827.1z"/>
<linearGradient id="SVGID_19_" gradientUnits="userSpaceOnUse" x1="1400.0035" y1="1057.0145" x2="554.8802" y2="692.9756" gradientTransform="matrix(0.7599 0 0 -0.7599 147.5498 1487.3412)">
	<stop  offset="0" style="stop-color:#010101;stop-opacity:0"/>
	<stop  offset="0.95" style="stop-color:#010101"/>
</linearGradient>
<path class="st25" d="M1067.2,827.1c24.6,27.3,56.6,49.2,92.6,56.2c4.4,2,9.6,0,11.6-4.5c0.3-0.7,0.5-1.5,0.7-2.3
	c10.9-28.9,8.7-61.3,1.2-91.3s-19.9-58.5-29.5-87.9c-11.6-35.9-64.7-132.5-68.7-132.5c-14.4,0-28.3,15.8-36.9,25.7
	c1.4,32.9,27.3,57,32.3,89.6c-3.9-18.1-30.3-38.6-46.8-46.8c-6.9-3.5-36.5-22.2-42.8-17.7c-4.9,3.4,14.1,26.5,13,32.4
	C982.1,710.2,1027.1,782.5,1067.2,827.1z"/>
<g>
	<path class="st26" d="M694.6,1208.6h-82.3c-11.3,0-20.5,9.2-20.5,20.5l0,0c0,11.3,9.2,20.5,20.5,20.5h41.3c3.6,0,6.9,0.9,9.9,2.5
		l-10.5,15.8c-2.8,4.3-7.3,7.2-12.4,8.1l-2.2,0.4c-0.3-0.4-0.7-0.8-1.1-1.2c-4.9-4.9-13-4.8-17.8,0.4c-4.2,4.6-4.2,11.9,0,16.5
		c4.7,5.2,12.8,5.3,17.8,0.4c1.5-1.5,2.5-3.2,3.1-5.1l6.8-1.2c5.1-0.9,9.5-3.8,12.4-8.1l11.9-17.9c1.6,2.9,2.5,6.3,2.5,9.9v41
		c0,11.3,9.2,20.5,20.5,20.5l0,0c11.3,0,20.5-9.2,20.5-20.5v-81.9C715,1217.8,705.9,1208.6,694.6,1208.6z"/>
	<path class="st26" d="M657.8,1295.7c-4.7-4.3-12-4.2-16.6,0.1c-3.6,3.4-4.7,8.4-3.3,12.7l-18.5,18.5c-3.5,3.5-5.5,8.3-5.5,13.4
		v18.2h-28.3c-4.2,0-8.1-1.3-11.3-3.4l7.5-21.3c1.8-5.2,5.8-9.3,10.9-11.3l0,0c4.9,4.3,12.5,4.1,17.1-0.8c4.3-4.6,4.4-11.9,0.1-16.6
		c-4.7-5.2-12.8-5.3-17.8-0.4c-2.1,2.1-3.3,4.7-3.5,7.4l-4.8,1.9c-5.1,2-9.1,6.1-10.9,11.3l-6.7,19.2c-0.7-2-1-4.2-1-6.4v-41.3
		c0-11.3-9.2-20.5-20.5-20.5l0,0c-11.3,0-20.5,9.2-20.5,20.5v82.3c0,11.3,9.2,20.5,20.5,20.5h82c11.3,0,20.5-9.2,20.5-20.5l0,0
		c0-11.3-9.2-20.5-20.5-20.5h-1.5V1345c0-5,2-9.8,5.5-13.4l15.2-15.2c4.2,1.4,9.1,0.4,12.4-3C663.2,1308.6,663,1300.5,657.8,1295.7z
		"/>
</g>
</svg>
