<?xml version="1.0" encoding="utf-8"?>
<!-- Generator: Adobe Illustrator 16.0.2, SVG Export Plug-In . SVG Version: 6.00 Build 0)  -->
<!DOCTYPE svg PUBLIC "-//W3C//DTD SVG 1.1//EN" "http://www.w3.org/Graphics/SVG/1.1/DTD/svg11.dtd">
<svg version="1.1" id="Calque_1" xmlns="http://www.w3.org/2000/svg" xmlns:xlink="http://www.w3.org/1999/xlink" x="0px" y="0px"
	 width="612px" height="792px" viewBox="0 0 612 792" enable-background="new 0 0 612 792" xml:space="preserve">
<linearGradient id="SVGID_1_" gradientUnits="userSpaceOnUse" x1="585.918" y1="128.5942" x2="281.7771" y2="655.3817">
	<stop  offset="0" style="stop-color:#3A1234"/>
	<stop  offset="1" style="stop-color:#2580C3"/>
</linearGradient>
<path fill-rule="evenodd" clip-rule="evenodd" fill="url(#SVGID_1_)" d="M264.551,451.316c6.965,0,13.472,0,20.755,0
	c0,39.296,0,78.355,0,117.721c99.215,0,197.656,0,296.606,0c0-117.921,0-235.821,0-354.122c-98.615,0-197.222,0-296.356,0
	c0,39.121,0,78.022,0,117.399c-7.188,0-13.862,0-21.394,0c0-2.328,0-4.656,0-6.985c0-52.563-0.018-105.126,0.007-157.688
	c0.014-28.871,24.404-51.644,55.553-51.672c76.137-0.066,152.276-0.066,228.414,0.001c30.595,0.027,55.437,22.84,55.454,51.256
	c0.098,150.022,0.089,300.046,0.006,450.07c-0.015,27.18-24.854,50.502-54.007,50.563c-77.316,0.162-154.634,0.172-231.95-0.01
	c-27.861-0.067-53.163-22.812-53.333-48.339c-0.367-55.189-0.12-110.381-0.11-165.57
	C264.196,453.301,264.363,452.662,264.551,451.316z M285.381,589.307c0,9.695-0.091,18.846,0.02,27.994
	c0.2,16.481,15.064,30.8,32.795,30.833c77.019,0.148,154.038,0.125,231.057,0.015c15.34-0.022,30.547-11.355,32.423-25.439
	c1.451-10.901,0.29-22.103,0.29-33.402C483.174,589.307,384.79,589.307,285.381,589.307z M582.402,194.517
	c0-10.146,0.298-19.556-0.066-28.944c-0.625-16.053-15.833-29.833-33.252-29.858c-76.783-0.116-153.566-0.098-230.349-0.009
	c-14.795,0.017-29.727,9.83-31.99,23.269c-1.953,11.598-0.406,23.705-0.406,35.543C384.882,194.517,483.266,194.517,582.402,194.517
	z"/>
<linearGradient id="SVGID_2_" gradientUnits="userSpaceOnUse" x1="470.6494" y1="336.0825" x2="390.7856" y2="474.4106">
	<stop  offset="0" style="stop-color:#3A1234"/>
	<stop  offset="1" style="stop-color:#2580C3"/>
</linearGradient>
<path fill-rule="evenodd" clip-rule="evenodd" fill="url(#SVGID_2_)" d="M460.967,345.55c22.985-5.222,34.684,0.403,44.763,20.641
	c1.062,2.13,4.202,3.722,6.752,4.794c22.382,9.407,32.604,29.38,25.8,50.808c-5.175,16.297-23.434,29.126-42.72,29.211
	c-43.84,0.192-87.687,0.382-131.524-0.082c-31.347-0.331-52.606-25.489-45.537-52.9c2.963-11.486,10.394-19.836,21.416-25.691
	c2.075-1.104,4.365-3.437,4.737-5.488c4.589-25.291,21.636-42.83,47.804-48.702c24.289-5.451,50.325,4.031,65.764,23.945
	C459.044,343.146,459.891,344.192,460.967,345.55z M429.678,431.357c21.205,0,42.413,0.125,63.616-0.039
	c16.857-0.131,27.683-11.188,25.318-25.688c-1.818-11.146-10.157-16.308-21.046-18.474c-7.195-1.433-10.552-4.803-11.705-11.849
	c-0.676-4.125-4.201-9.226-8.021-11.075c-2.845-1.377-8.915,0.841-12.329,3.069c-8.329,5.435-14.19,4.418-18.821-3.971
	c-2.662-4.823-5.494-9.748-9.253-13.829c-10.912-11.846-30.511-16.121-45.806-10.577c-16.179,5.863-26.121,19.416-25.588,35.697
	c0.232,7.031-2.696,11.097-9.992,12.939c-10.016,2.534-16.438,8.253-17.324,18.341c-1.274,14.513,10.4,25.263,28.04,25.411
	C387.735,431.49,408.707,431.354,429.678,431.357z"/>
<linearGradient id="SVGID_3_" gradientUnits="userSpaceOnUse" x1="172.7065" y1="359.4883" x2="101.0322" y2="483.6318">
	<stop  offset="0" style="stop-color:#3A1234"/>
	<stop  offset="1" style="stop-color:#2580C3"/>
</linearGradient>
<path fill-rule="evenodd" clip-rule="evenodd" fill="url(#SVGID_3_)" d="M263.848,412.108c0,6.471,0,12.516,0,18.902
	c-84.75,0-169.185,0-253.958,0c0-6.346,0-12.391,0-18.902C94.365,412.108,178.801,412.108,263.848,412.108z"/>
<linearGradient id="SVGID_4_" gradientUnits="userSpaceOnUse" x1="225.752" y1="318.7275" x2="175.2996" y2="406.1136">
	<stop  offset="0" style="stop-color:#3A1234"/>
	<stop  offset="1" style="stop-color:#2580C3"/>
</linearGradient>
<path fill-rule="evenodd" clip-rule="evenodd" fill="url(#SVGID_4_)" d="M285.072,352.976c0,6.453,0,12.496,0,18.89
	c-56.454,0-112.602,0-169.091,0c0-6.329,0-12.373,0-18.89C172.148,352.976,228.296,352.976,285.072,352.976z"/>
<linearGradient id="SVGID_5_" gradientUnits="userSpaceOnUse" x1="469.5898" y1="139.8955" x2="440.4021" y2="190.4502">
	<stop  offset="0" style="stop-color:#3A1234"/>
	<stop  offset="1" style="stop-color:#2580C3"/>
</linearGradient>
<path fill-rule="evenodd" clip-rule="evenodd" fill="url(#SVGID_5_)" d="M413.008,174.634c0-6.511,0-12.552,0-18.923
	c28.017,0,55.711,0,83.976,0c0,6.061,0,12.262,0,18.923C469.295,174.634,441.432,174.634,413.008,174.634z"/>
<linearGradient id="SVGID_6_" gradientUnits="userSpaceOnUse" x1="387.5469" y1="153.8091" x2="374.2911" y2="176.7687">
	<stop  offset="0" style="stop-color:#3A1234"/>
	<stop  offset="1" style="stop-color:#2580C3"/>
</linearGradient>
<path fill-rule="evenodd" clip-rule="evenodd" fill="url(#SVGID_6_)" d="M391.194,155.915c0,6.263,0,12.293,0,18.747
	c-6.841,0-13.496,0-20.552,0c0-6.136,0-12.168,0-18.747C377.089,155.915,383.749,155.915,391.194,155.915z"/>
</svg>
