<?xml version="1.0" encoding="utf-8"?>
<!-- Generator: Adobe Illustrator 24.0.2, SVG Export Plug-In . SVG Version: 6.00 Build 0)  -->
<svg xmlns="http://www.w3.org/2000/svg" xmlns:xlink="http://www.w3.org/1999/xlink" version="1.1" id="Calque_1" x="0px" y="0px" viewBox="0 0 1800 1800" style="enable-background:new 0 0 1800 1800;" xml:space="preserve">
<style type="text/css">
	.st0{fill:url(#SVGID_1_);}
	.st1{fill:url(#SVGID_2_);}
	.st2{fill:url(#SVGID_3_);}
	.st3{fill:url(#SVGID_4_);}
	.st4{fill:url(#SVGID_5_);}
	.st5{fill:url(#SVGID_6_);}
	.st6{fill:url(#SVGID_7_);}
</style>
<g>
	<linearGradient id="SVGID_1_" gradientUnits="userSpaceOnUse" x1="446.6935" y1="774.9878" x2="1274.3218" y2="774.9878">
		<stop offset="0" style="stop-color:#2580C3"/>
		<stop offset="1" style="stop-color:#3A1234"/>
	</linearGradient>
	<path class="st0" d="M1274.2,776.8c0,22,0.3,43.9-0.1,65.9c-0.6,32.8-6.6,38.8-39.1,37.7c-16.6-0.5-33.3-4.3-38.6,18.8   c-5.4,23.2-31.2,44.9,3.7,68.6c25.2,17.1,23.6,29.3,1.9,51.4c-31.4,32-63.1,63.8-95.2,95.2c-22.3,21.8-37.1,22-57.1-2.8   c-13.5-16.7-24.7-16.3-44.1-9.8c-31,10.3-48.2,24.2-41.2,59.9c3.5,17.7-8.9,27.1-26.4,27.2c-51.3,0.3-102.6,0.2-153.9,0.1   c-20.8-0.1-29-11.5-29.1-31.6c-0.1-13.2,2.3-32.5-5-38.2c-15.2-11.9-35.6-18.4-54.9-23.1c-6.1-1.5-16.4,8.9-22.9,15.7   c-23,23.8-35.9,24.5-59.7,1.1c-30-29.6-59.8-59.4-89.4-89.3c-23.6-23.9-23.5-37.2,0.5-59.4c10.7-10,25-18.6,12.5-36   c-13.1-18.2-5.9-53.8-46.6-48.4c-33.2,4.3-42.5-6.8-42.7-40.3c-0.2-43.9-0.3-87.9,0.1-131.8c0.3-29.4,8.5-36.2,38.5-36.7   c11.1-0.2,28-0.1,32.1-6.6c10.9-17.4,18.6-37.8,22.6-58c1.2-6.2-12.6-16.4-20.7-23.3c-19.8-16.6-20.5-32.3-1.8-50.5   c32.2-31.3,63.4-63.5,95.4-95c24.2-23.8,36.3-23.3,59.1,1.6c9.9,10.9,18.8,24.6,36,12.3c18.2-13.1,53.3-6.3,48.5-46.9   c-4.4-36.7,4.1-43.1,41.1-43.4c43-0.3,86.1-0.4,129.1,0.1c32.9,0.4,38.3,6.7,38.6,38.5c0.1,11.2-0.6,28.5,5.7,32.5   c17.3,11.1,37.7,18.4,57.9,23.1c5.6,1.3,15-11.2,21.8-18.2c21.5-22,33.5-23,55.3-1.8c32.1,31.3,63.7,63.2,95.2,95.1   c22.9,23.2,22.2,31.8-1.3,54.2c-10.4,9.9-29,16.9-15.6,37.1c13.4,20.1,8.1,56.7,50.9,50.1c32.5-5,38.4,3.1,38.9,36.3   C1274.5,731.1,1274.2,753.9,1274.2,776.8z M1080.6,494.8c-3.8,2.9-9.2,5.3-12.2,9.4c-17.2,24.1-35.7,25-61.1,10.1   c-22.5-13.2-49.4-18.7-73-30.4c-11.6-5.8-22.5-16.5-29-27.7c-5.7-9.9-0.7-28.9-7.7-34.2c-8.4-6.3-24.5-2.4-37.3-2.7   c-7.3-0.2-14.7,0.7-22-0.2c-18.4-2.1-25.4,5.9-22.6,23.7c4.2,26.7-9.7,37.9-34,43.1c-15.9,3.4-32.7,8.1-46.1,16.9   c-33.8,22.3-65,32-94-6.4c-0.4-0.5-1.8-0.2-3.9-0.5c-19.2,19.3-39,39.1-59.6,59.8c4.1,4.4,7.2,9.1,11.5,12.2   c24.2,17.2,24.7,35.5,9.6,60.8c-13.8,23.2-19.3,51.1-31.6,75.4c-5.6,11.1-20.2,27.1-28.4,25.9c-37.2-5.6-38.2,15.1-35.9,41.2   c0.7,8.2,0.8,16.5,0,24.7c-2.1,19.5,6.4,27,25.4,24.3c24.9-3.5,35.4,9,41.8,32.3c7,25.3,17.4,50.3,30.4,73   c12.8,22.2,13.2,39.1-8.3,54.2c-13.9,9.9-13.8,19-1.2,30.6c15.9,14.8,30.3,31.1,46.1,47.4c7.8-6.1,13.8-9.1,17.3-13.9   c16.3-22.1,34-23.2,56.6-8.4c15.1,9.9,32.2,18.5,49.6,22.7c37.3,9,67.5,21.4,53.3,71.2c32.1,0,60.5,0,90.6,0c0-7,0.6-11.5-0.1-15.8   c-4.4-27.5,6-43.1,34.4-48.6c16.8-3.3,34-9.2,48.6-18c34-20.4,66-36.4,93.4,17.6c17.3-19.7,29.3-36,43.9-49.4   c15.4-14.2,19.3-24.9,0-38.6c-15.3-10.9-18-24.9-9.3-43.2c14-29.6,24.1-61,38.4-90.4c4.7-9.6,18.4-22.6,26.3-21.6   c35.5,4.8,40-13.4,36.8-41.2c-1.1-9-0.9-18.3,0-27.4c1.7-18.4-5.8-25-24-21.7c-24.8,4.5-36.9-7.6-42.2-31.4   c-4-17.7-9.3-36-18.6-51.3c-20.8-34.2-35.3-65.9,12.1-91.6C1121.7,534.8,1101.6,515.2,1080.6,494.8z"/>
	<linearGradient id="SVGID_2_" gradientUnits="userSpaceOnUse" x1="95.7149" y1="448.8724" x2="1493.1136" y2="448.8724">
		<stop offset="0" style="stop-color:#2580C3"/>
		<stop offset="1" style="stop-color:#3A1234"/>
	</linearGradient>
	<path class="st1" d="M269,713.9c18.4-17.4,35.2-33.2,54.8-51.7c12.2,14.2,23.3,27.2,36.8,42.9c-37.7,37.7-76.1,77.8-116.9,115.2   c-6.3,5.7-28.6,4-35.6-2.7c-39.1-37.2-75.7-76.9-112.4-115c9.6-11.8,20.8-25.6,33.1-40.8c24.9,23.4,45.9,43.1,71.1,66.8   c6.2-34.1,9.8-62.7,16.7-90.4c67.1-266.1,221.2-457.6,488.7-537.8c214.6-64.4,410.5-7.1,587,124.3   c76.7,57.1,138.2,127.9,185.7,210.9c5.3,9.3,9.6,19.3,15.1,30.3c-16.4,8.5-30.8,16-48,24.9c-111.3-191.7-272.9-313.5-492.4-350.9   c-122.3-20.8-238.7,2.8-347.8,61.4C421.5,300,244,568.1,269,713.9z"/>
	<linearGradient id="SVGID_3_" gradientUnits="userSpaceOnUse" x1="1083.5132" y1="1310.0015" x2="1626.4487" y2="1310.0015">
		<stop offset="0" style="stop-color:#2580C3"/>
		<stop offset="1" style="stop-color:#3A1234"/>
	</linearGradient>
	<path class="st2" d="M1560,1479.1c-25.2-4.7-44.7-6.3-62.8-12.2c-26.6-8.7-35.1,2.8-36.9,26.8c-1.1,15.5-3.7,30.9-5.3,46.3   c-2.1,19.6-12.9,29.5-32.6,29.5c-46.7-0.1-93.5,1.2-140-1.4c-9.5-0.5-22.5-14-26.2-24.2c-5.8-15.9-5.5-34.1-6.9-51.4   c-1.9-22.7-10.5-33.8-35.5-26.1c-15.6,4.8-32.3,6.1-48.4,9.5c-19.4,4.1-31.6-2.6-37.7-21.9c-13.5-42.6-27.9-85-41.6-127.6   c-6.2-19.3-1-33.9,18.8-42.3c16.8-7.1,32.9-16,49.9-22.6c17.6-6.8,19-17,10.2-31.9c-9.3-15.7-17.5-32.1-26.9-47.8   c-10.9-18.2-7.8-32.3,9.5-44.7c36.5-26,72.6-52.7,108.9-79c15.8-11.5,30.5-10.3,43.8,4.5c10.4,11.6,21,23,31.7,34.3   c21.7,23.2,24.7,23.1,47.2-0.8c10.6-11.3,21.2-22.8,31.8-34.2c12.6-13.6,26.6-15.1,41.5-4.3c37.1,26.8,73.9,53.9,111.1,80.6   c16.2,11.6,19.5,25.3,9.4,42.5c-9.7,16.6-18.9,33.5-28.4,50.1c-7.9,13.9-5.8,23.9,9.9,30.5c16.8,7.1,33.1,15.5,49.9,22.6   c19.3,8.2,26.3,21.7,19.7,41.7c-14.2,43.4-27.7,87.1-43.4,129.9C1577,1465.7,1565.6,1472.9,1560,1479.1z M1437.4,1118.3   c-10.8,11.6-20,21.5-29.2,31.4c-30.4,32.7-74.9,33.2-104.9,1.2c-30.9-33-30.9-33-68.3-5.8c-1.5,1.1-2.9,2.2-4.4,3.3   c-39.1,27.9-32,21.6-12.9,57.2c25.2,46.6,13.2,84.3-34.6,106.2c-35.9,16.5-35.9,16.5-23.5,54.2c1.1,3.5,2.2,7,3.3,10.4   c12.7,39,12.7,39,52.2,31.4c50.6-9.8,85.3,16.2,89.9,67.2c3.4,37.6,3.4,37.6,39.5,37.6c53.1,0,53.1,0,62.1-52.4   c5.6-32.2,42.9-60.8,73-56c55.9,8.9,55.9,8.9,72.8-44c0.8-2.6,1-5.6,2.2-7.9c10.1-18.8,2-28.6-15.9-35   c-27.5-9.8-48.5-23.9-57.3-56.1c-8-29.1,7.8-47,18.6-68.3c5.4-10.8,13.4-20.6-1-30.7C1478.8,1148.2,1459,1133.8,1437.4,1118.3z"/>
	<linearGradient id="SVGID_4_" gradientUnits="userSpaceOnUse" x1="291.8494" y1="1291.8196" x2="1046.9611" y2="1291.8196">
		<stop offset="0" style="stop-color:#1D123A"/>
		<stop offset="1" style="stop-color:#3A1234"/>
	</linearGradient>
	<path class="st3" d="M1047,1442.3c-237.2,112.6-670.6-68.8-755.1-314.9c1.9-1.6,3.7-3.6,5.9-4.9c39.4-22.7,38.9-22.3,63,16.2   c123.7,198,308,278,535.2,271.3c45.3-1.3,90.4-9.8,138.2-15.3C1038.2,1409.8,1042.6,1426.2,1047,1442.3z"/>
	<linearGradient id="SVGID_5_" gradientUnits="userSpaceOnUse" x1="1400.7129" y1="897.9758" x2="1687.0411" y2="897.9758">
		<stop offset="0" style="stop-color:#1D123A"/>
		<stop offset="1" style="stop-color:#3A1234"/>
	</linearGradient>
	<path class="st4" d="M1476.6,1012.1c15.4-48.9,29.9-94.7,44.4-140.5c-2.5-2.1-5.1-4.2-7.6-6.3c-19.3,15-39.9,28.6-57.5,45.4   c-19.2,18.2-31.6,17-47.3-4.8c-11.2-15.6-10.9-23.9,4.1-35.6c39.7-30.9,78.7-62.7,117.4-94.9c18.1-15,33.4-15.1,50.1,2.1   c35.4,36.7,71.6,72.7,106.9,108.4c-2.9,5.5-3.7,8.3-5.5,10.3c-30.8,34.7-31.3,35.1-63.6,1.1c-10.6-11.1-18-25.2-26.8-37.9   c-3.7,2.5-7.5,5-11.2,7.5c-3.3,12.8-6.1,25.7-9.9,38.3c-10.5,34-22,67.6-31.9,101.8c-7.6,26-20.8,31.8-43.1,15.8   C1489.1,1018.6,1482.5,1015.5,1476.6,1012.1z"/>
	<linearGradient id="SVGID_6_" gradientUnits="userSpaceOnUse" x1="678.0038" y1="775.2304" x2="1042.9266" y2="775.2304">
		<stop offset="0" style="stop-color:#2580C3"/>
		<stop offset="1" style="stop-color:#3A1234"/>
	</linearGradient>
	<path class="st5" d="M1042.9,774.4c0.7,100.4-79.7,182.8-179.3,183.7c-102.1,1-184.8-79.3-185.6-180.3   c-0.8-101.8,79.8-184.5,180.8-185.4C960,591.5,1042.2,672.7,1042.9,774.4z M859.8,650.3c-68,0.4-124.6,56.3-125.1,123.6   c-0.6,69,55.8,125.9,125.1,126.5C929,901,986.3,844.1,986,775.3C985.7,705.8,929.2,649.9,859.8,650.3z"/>
	<linearGradient id="SVGID_7_" gradientUnits="userSpaceOnUse" x1="1254.3877" y1="1308.731" x2="1458.6389" y2="1308.731">
		<stop offset="0" style="stop-color:#2580C3"/>
		<stop offset="1" style="stop-color:#3A1234"/>
	</linearGradient>
	<path class="st6" d="M1254.4,1309.7c-0.3-55.5,46.2-104.2,99-103.9c58.3,0.4,104.3,44.5,105.2,101.1c1,56.9-44.6,104.1-101.1,104.7   C1300,1412.3,1254.7,1367.4,1254.4,1309.7z M1356.3,1265.5c-24-0.2-44.2,18.6-45.2,42.2c-1,24.5,19.4,45.7,44.3,46.2   c25.3,0.5,44.7-19.3,44.3-45.2C1399.4,1283.9,1381.1,1265.7,1356.3,1265.5z"/>
</g>
</svg>