<?xml version="1.0" encoding="utf-8"?>
<!-- Generator: Adobe Illustrator 24.0.2, SVG Export Plug-In . SVG Version: 6.00 Build 0)  -->
<svg version="1.1" id="Calque_1" xmlns="http://www.w3.org/2000/svg" xmlns:xlink="http://www.w3.org/1999/xlink" x="0px" y="0px"
	 viewBox="0 0 1800 1800" style="enable-background:new 0 0 1800 1800;" xml:space="preserve">
<style type="text/css">
	.st0{fill:url(#SVGID_1_);}
	.st1{fill:url(#SVGID_2_);}
	.st2{fill:url(#SVGID_3_);}
	.st3{fill:url(#SVGID_4_);}
</style>
<g>
	<linearGradient id="SVGID_1_" gradientUnits="userSpaceOnUse" x1="1721.1306" y1="506.8331" x2="-3.629" y2="1502.6235">
		<stop  offset="0" style="stop-color:#2580C3"/>
		<stop  offset="1" style="stop-color:#3A1234"/>
	</linearGradient>
	<path class="st0" d="M768.5,448.2c-66.4,0-127.6,0-188.8,0c-11.3,0-22.5,0-33.8,0c-23.8-0.1-37.2-10.5-37.7-29.4
		c-0.6-19.2,13.2-30.4,38.3-30.4c77.6,0,155.2-0.5,232.8,0.5c16.7,0.2,26.1-4.7,33.5-19.6c14.1-28.3,30-55.7,45.5-84.1
		c-3.5-1.8-5.5-3.5-7.8-3.9c-27.2-5.5-32.7-11.8-33.3-38.4c-0.7-27.2-0.7-27.1-28.3-27.1c-89.5,0.1-179,0.8-268.4-0.4
		c-22-0.3-35.7,4.2-47.8,24.7c-20.8,35.3-63.2,48.2-103.3,36.5c-38.3-11.2-65.8-45.9-67.3-85.2c-1.6-41.8,21.9-78.5,59.5-92.9
		c44.4-16.9,94.1,0.4,117.6,43c6.7,12.1,14.2,14.9,26.5,14.8c97.6-0.3,195.2-0.5,292.8,0.2c15.5,0.1,18.9-5.1,18.8-19.4
		c-0.3-37.9,6.7-44.1,45-44.2c36.3,0,72.6-0.3,108.9-0.2c23.8,0.1,34.1,10.5,34.4,34.3c0.4,29.1,0.4,29.1,29.6,29.2
		c95.1,0,190.2-0.1,285.3,0.1c9.9,0,16.8-1.1,22.2-11.9c20.1-40.3,63-59.2,107.1-49.1c40.6,9.3,69.6,44.8,71.4,87.5
		c1.8,42.7-25.1,80.8-66.3,93.7c-41.4,13-86.2-2.8-108.2-41.7c-9-15.9-19.1-19.1-35.6-19c-95.1,0.7-190.2,0.6-285.3,0.2
		c-13.6,0-20.5,2.3-20.2,18.4c0.6,36.5-2.4,39.5-38.6,49.8c1.6,4.4,2.7,9,4.9,13c13.8,25.9,28.3,51.4,41.5,77.5
		c5.6,11.1,13.2,14.2,25.3,14.1c178.3-0.4,356.7-0.2,535-0.3c54.7,0,96.7,40.9,96.7,95.3c0,336.6-0.1,673.1-0.6,1009.7
		c0,14.1,2.4,19.8,18.2,19.5c39.5-0.7,46.3,7,46.3,47.1c0,26.2,0.1,52.4,0.1,78.7c-0.1,48.3-34.1,87.8-82.2,93.8
		c-17.3,2.2-35,1.7-52.5,1.7c-468,0-936.1-0.2-1404.1-0.1c-36.7,0-68.7-9.9-89.1-41.4c-8.4-12.9-13.7-29.7-14.7-45.1
		c-2.2-33.6-1-67.4-0.8-101.1c0.1-24,10.3-34.2,34.2-33.9c31.7,0.4,28.7,1.5,28.7-29.7c0-330.9,0-661.9,0-992.8
		c0-58.8,39.6-102.8,91.3-101.9c19.2,0.3,31,10,32.2,26.6c1.3,18.7-9.3,30.7-29.5,33.2c-27.9,3.5-46.7,39.6-32,63.1
		c2.5,4,11.9,5.1,18.1,5.1c130.1,0.2,260.3,0.1,390.4,0.1c30.7,0,61.3-0.4,92,0.2c11.5,0.3,18.4-3.5,23.4-14
		C747.8,485.5,757.4,469,768.5,448.2z M697.8,578c-12.4-0.8-19.8-1.7-27.1-1.7c-145.8,0-291.5,0.3-437.3-0.2
		c-16.2-0.1-20,5.2-19.9,20.3c0.6,121.1,0.4,242.2,0.5,363.3c0,135.5,0.1,270.9-0.1,406.4c0,11.2,0.2,19.1,15.3,19
		c158.3-0.4,316.5-0.4,474.8-0.2c11.7,0,17.2-3.9,17.1-16.2c-0.2-91.8,0.1-183.5-0.5-275.3c0-5.3-4.9-13.6-9.4-15.3
		c-17.5-6.7-23.1-19.2-23-36.5c0.1-38.1-0.6-76.2,0-114.2c0.2-8.9,2-19.8,7.5-26c8.1-9.3,5.5-16.2,1.4-25.1
		c-19.9-43-38.5-86.6-59.8-128.9c-11.6-23.1-11.3-42.6,2.2-64.8C659.7,649.9,677.2,615.5,697.8,578z M1127.7,577.6
		c2.2,6.6,2.9,10.8,4.9,14.3c17.3,31.8,33.5,64.2,52.6,94.8c12.6,20.1,11.6,37.3,1.6,57.7c-19.8,40.2-37.7,81.4-56.5,122.1
		c-6.2,13.4-14.1,26.5,0.8,39.9c3,2.7,3.2,9.3,3.2,14.2c0.2,42.4,1,84.9-0.9,127.3c-0.4,9.7-9,23.8-17.4,27.2
		c-12.9,5.3-12.8,12.7-12.8,22.8c0,89.3,0.2,178.5-0.4,267.8c-0.1,14.3,3.2,19.6,18.7,19.5c152.6-0.6,305.3-0.3,457.9-0.4
		c30.4,0,30.4-0.1,30.4-30.8c0-251.6-0.3-503.1,0.3-754.7c0-18.4-5.9-23.5-23.5-23.4c-145.1,0.5-290.2,0.3-435.4,0.4
		C1144.1,576.4,1136.9,577.1,1127.7,577.6z M910.5,1674.1c0-0.1,0-0.1,0-0.2c239,0,477.9,0,716.9,0c35,0,46.1-10.9,46.5-45.6
		c0.2-12.5-0.2-25,0.5-37.4c0.8-13.5-4.2-18.7-18.3-18.6c-170.8,0.4-341.5,0.2-512.3,0.8c-8,0-17.9,4.7-23.5,10.5
		c-14.1,14.3-30.1,21.6-50,21.6c-106.3,0-212.7,0.7-319-0.9c-15.2-0.2-32.4-9.1-44.6-19c-10.6-8.6-19.5-12.9-32.8-12.9
		c-157.6,0.3-315.3,0.1-472.9,0.3c-16.6,0-38.4-3.8-48.1,4.9c-8.3,7.5-3.1,30.4-3.3,46.5c-0.5,39.1,10.6,50.1,49.7,50.1
		C436.3,1674.1,673.4,1674.1,910.5,1674.1z M944.9,378.6c-1.5,7.7-3,11.6-3,15.5c-0.2,71.8-0.6,143.6,0.3,215.3
		c0.1,6.5,6.9,15.4,13,18.9c38.9,21.9,59.4,65.6,49.2,107.9c-10,41.6-48.1,71.8-91.2,72.3c-42.9,0.6-82-27.6-93.3-67.2
		c-12.4-43.4,5.2-88.4,45.6-110.1c12.8-6.9,16.3-14.5,16.3-27.7c-0.3-66.8,0-133.6,0-200.3c0-7-1.3-14.1-2.4-25.3
		c-5.1,6.5-7.8,9.1-9.5,12.1c-58,105.4-116,210.8-173.3,316.5c-3.2,5.9-2.9,16.1,0,22.5c21.3,48.5,43.9,96.4,65.5,144.8
		c5.4,12,12.9,15.8,26.1,15.8c83.2-0.5,166.4-0.2,249.6,0.4c10.8,0.1,16.8-3.1,21.4-13.4c22.2-49.4,45.6-98.2,67.6-147.7
		c3-6.7,2.5-17.6-0.9-24c-55.4-102.6-111.5-204.7-167.5-306.9C955.1,392.2,950.9,387.1,944.9,378.6z M911.6,1444.4
		c-216.4,0-432.8,0-649.3,0c-48.4,0-47.7,0-48.7,49.1c-0.3,16.3,5.3,19.4,20.4,19.4c158.9-0.6,317.8-0.2,476.6-0.6
		c17.9,0,29.3,6.3,36.9,22.6c2.1,4.6,10,9.4,15.3,9.5c98.8,0.7,197.6,0.8,296.5,0.5c5.2,0,13.6-3.4,14.9-7.2
		c7.9-21.8,24-25.4,44.7-25.3c148.2,0.5,296.5,0.3,444.7,0.3c46,0,45.2-0.1,46.4-45.7c0.5-18.1-5-22.9-23-22.9
		C1361.9,1444.7,1136.7,1444.5,911.6,1444.4z M780.8,1231c0,44.9,0.6,89.8-0.3,134.7c-0.3,14.7,4.1,19.4,19,19.3
		c75-0.6,150-0.3,225,0.2c14.2,0.1,17.9-5.2,17.8-18.9c-0.5-89.8-0.6-179.6,0.1-269.4c0.1-15.2-4.8-19.2-19.3-19.1
		c-75,0.5-150,0.5-225-0.1c-14.6-0.1-17.8,5.1-17.6,18.6C781.3,1141.2,780.8,1186.1,780.8,1231z M1054.6,449.2
		c10.8,19.2,20.7,34.2,27.8,50.4c6,13.6,14.2,17.4,28.6,17.3c129.3-0.6,258.7-0.5,388.1-0.5c31.2,0,62.5,0.4,93.7-0.2
		c5.6-0.1,14.6-3.6,16-7.6c11.8-33.9-7.6-60.4-43.2-60.4c-163.1,0-326.2-0.1-489.3,0C1070.8,448.2,1065.4,448.7,1054.6,449.2z
		 M912.4,1018.1c0,0,0,0.1,0,0.1c38.2,0,76.3,0,114.5,0c48.1,0,47.5,0,47.9-48.4c0.1-15.4-4.3-20.4-20.1-20.3
		c-85.7,0.7-171.4,0.4-257.2,0.4c-49.8,0-49.3,0-49.6,50.1c-0.1,13.9,3.9,18.6,18.1,18.4C814.8,1017.6,863.6,1018.1,912.4,1018.1z
		 M911.2,221c38.2-0.4,34.6,4.7,34.8-35.4c0.2-36.7,5-34.3-34.1-33.6c-38,0.7-34.3-6.8-34.3,35.2C877.7,220.9,877.7,220.9,911.2,221
		z M911.4,748.2c20-0.1,35.4-15.7,35.2-35.5c-0.2-18.1-16.8-33.6-35.6-33.2c-20.2,0.4-33.2,13.9-33.3,34.6
		C877.6,734.1,891.6,748.3,911.4,748.2z M396.5,220.7c18.9-0.3,34.8-16.4,34.2-34.5c-0.7-18.5-16.6-33.6-35.4-33.6
		c-17.8,0-32.6,15.3-32.5,33.6C362.8,205.7,377.8,221,396.5,220.7z M1427.6,220.7c18.5-0.2,33.7-16.3,33.3-35.2
		c-0.4-18.2-17.2-33.9-35.4-33.1c-17.8,0.8-32.5,16.3-32.5,34.3C1393.1,205.6,1408.7,221,1427.6,220.7z"/>
	<linearGradient id="SVGID_2_" gradientUnits="userSpaceOnUse" x1="419.0427" y1="402.9569" x2="367.2306" y2="432.8707">
		<stop  offset="0" style="stop-color:#2580C3"/>
		<stop  offset="1" style="stop-color:#3A1234"/>
	</linearGradient>
	<path class="st1" d="M394.6,388.7c16.2,0.7,29.8,15.1,28.8,30.4c-1.1,15.9-15.4,29.4-30.9,29.1c-17-0.4-30-14.7-29.1-32.1
		C364.3,399.4,377.4,387.9,394.6,388.7z"/>
	<linearGradient id="SVGID_3_" gradientUnits="userSpaceOnUse" x1="1518.9377" y1="1239.5885" x2="1358.3204" y2="1332.3209">
		<stop  offset="0" style="stop-color:#2580C3"/>
		<stop  offset="1" style="stop-color:#3A1234"/>
	</linearGradient>
	<path class="st2" d="M1438.5,1255.9c22.5,0,45-0.5,67.5,0.1c21.9,0.6,34.2,11.3,34.6,28.7c0.4,19.2-12.7,31.8-35.6,32.1
		c-45.6,0.5-91.2,0.5-136.8,0c-18.2-0.2-31.4-13.6-31.7-30.2c-0.3-18,10.3-29.2,30.8-29.9c23.7-0.9,47.5-0.2,71.2-0.2
		C1438.5,1256.3,1438.5,1256.1,1438.5,1255.9z"/>
	<linearGradient id="SVGID_4_" gradientUnits="userSpaceOnUse" x1="1246.9362" y1="1271.0834" x2="1195.3519" y2="1300.8655">
		<stop  offset="0" style="stop-color:#2580C3"/>
		<stop  offset="1" style="stop-color:#3A1234"/>
	</linearGradient>
	<path class="st3" d="M1250.4,1285.7c0.1,15.1-13.9,30.4-28.6,31.1c-15.1,0.7-31-15.1-31.2-31.2c-0.2-16.1,13.1-28.8,30.2-28.7
		C1238.6,1257,1250.2,1268.3,1250.4,1285.7z"/>
</g>
</svg>
